<svg id="Layer_1" data-name="Layer 1" xmlns="http://www.w3.org/2000/svg" viewBox="0 0 302.33 302.33"><defs><style>.cls-1{fill:#1da4dd;}.cls-2{fill:none;}</style></defs><title>IQ Blue</title><path class="cls-1" d="M582.49,219.16c1.64,30.13.22,101.89,0,112.68l-1.31.72-26-27.53V294.35c0-20.17,0-40.33,0-60.49-.07-29.68-21.43-52.56-50.92-53.26-30.35-.73-52,23-52.77,48.6q-1.15,40.71,0,81.47c1.08,37.42,44,60.94,76.54,42.53a3.34,3.34,0,0,0,1.86-2C521,341.72,512.1,332.12,502.7,322l16.49-15.74,70.58,75.44c-4.89,5.95-10.89,10.35-16.41,15.88-7-7.4-13.7-14.51-20.61-21.81-7.91,5.23-16.09,9.63-25.24,10.72-21.88,2.6-44,4.9-64.67-5.48-22.95-11.54-36.85-30.31-38.46-56.17-2.11-33.76-.73-67.62-.67-101.44,0-22.76,8.78-41.82,26.92-56,11.59-9.08,24.85-14.29,39.67-14.36,11.8-.06,23.73-1.45,35.4,1,13.82,2.91,25.2,8.48,34.17,16.62a71.28,71.28,0,0,1,22.62,48.49Z" transform="translate(-322.95 -123.94)"/><path class="cls-1" d="M594.22,209.36" transform="translate(-322.95 -123.94)"/><path class="cls-1" d="M365.17,388.24v-235h27v235Z" transform="translate(-322.95 -123.94)"/><rect class="cls-2" width="302.33" height="302.33"/></svg>