<svg id="Layer_1" data-name="Layer 1" xmlns="http://www.w3.org/2000/svg" viewBox="0 0 302.33 302.33"><defs><style>.cls-1{fill:#fff;}.cls-2{fill:none;}</style></defs><title>IQ</title><path class="cls-1" d="M574.17,254.56c1.65,30.13.23,101.89,0,112.68l-1.3.72c-8.56-9.07-17.13-18.13-26-27.53V329.75c0-20.17,0-40.33,0-60.5-.07-29.67-21.43-52.55-50.92-53.25-30.35-.73-52,23-52.77,48.59q-1.15,40.71,0,81.48c1.09,37.42,44,60.94,76.55,42.53a3.3,3.3,0,0,0,1.85-2l-27.14-29.15,16.5-15.75,70.58,75.45c-4.89,5.94-10.89,10.35-16.41,15.88l-20.61-21.82c-7.91,5.24-16.09,9.64-25.24,10.73-21.88,2.6-44,4.9-64.67-5.48-22.95-11.54-36.86-30.32-38.47-56.17-2.1-33.76-.72-67.62-.67-101.44,0-22.76,8.79-41.83,26.93-56,11.59-9.07,24.84-14.28,39.67-14.35,11.8-.06,23.73-1.45,35.4,1,13.82,2.91,25.19,8.48,34.17,16.62a71.15,71.15,0,0,1,22.61,48.49Z" transform="translate(-311.77 -162.35)"/><path class="cls-1" d="M585.91,244.75" transform="translate(-311.77 -162.35)"/><path class="cls-1" d="M356.85,423.64v-235h27v235Z" transform="translate(-311.77 -162.35)"/><rect class="cls-2" width="302.33" height="302.33"/></svg>